<svg xmlns="http://www.w3.org/2000/svg" width="24" height="24" viewBox="0 0 24 24" fill="none"><path d="M4 10.7825C4 11.7148 4.17644 12.5918 4.52932 13.4134C4.88808 14.2291 5.38211 14.9488 6.01142 15.5722C6.64072 16.1957 7.36706 16.6852 8.19045 17.0406C9.01972 17.3902 9.90486 17.565 10.8459 17.565C11.6163 17.565 12.3515 17.4427 13.0514 17.1979C13.7513 16.9532 14.3864 16.6153 14.9569 16.1841L19.5532 20.7553C19.6355 20.831 19.7267 20.8893 19.8267 20.9301C19.9325 20.9767 20.0443 21 20.1619 21C20.3266 21 20.4707 20.9621 20.5942 20.8864C20.7236 20.8106 20.8236 20.7057 20.8941 20.5717C20.9647 20.4435 21 20.3037 21 20.1522C21 20.0356 20.9794 19.9278 20.9382 19.8288C20.8971 19.7297 20.8353 19.6423 20.753 19.5666L16.1832 15.0041C16.6537 14.4331 17.0213 13.7863 17.2859 13.0638C17.5565 12.3412 17.6917 11.5808 17.6917 10.7825C17.6917 9.85021 17.5124 8.97326 17.1536 8.15167C16.8007 7.33008 16.3096 6.61045 15.6803 5.9928C15.051 5.36932 14.3217 4.88278 13.4925 4.53316C12.6691 4.17772 11.7869 4 10.8459 4C9.90486 4 9.01972 4.17772 8.19045 4.53316C7.36706 4.88278 6.64072 5.36932 6.01142 5.9928C5.38211 6.61045 4.88808 7.33008 4.52932 8.15167C4.17644 8.97326 4 9.85021 4 10.7825ZM5.14686 10.7825C5.14686 10.0017 5.29389 9.27044 5.58796 8.58869C5.88203 7.90694 6.29078 7.30677 6.81422 6.78817C7.33766 6.26958 7.94344 5.86461 8.63155 5.57326C9.31967 5.27609 10.0578 5.12751 10.8459 5.12751C11.634 5.12751 12.3721 5.27609 13.0602 5.57326C13.7483 5.86461 14.3512 6.26958 14.8687 6.78817C15.3921 7.30677 15.8009 7.90694 16.095 8.58869C16.3949 9.27044 16.5449 10.0017 16.5449 10.7825C16.5449 11.5575 16.3949 12.2888 16.095 12.9763C15.8009 13.6581 15.3921 14.2583 14.8687 14.7769C14.3512 15.2896 13.7483 15.6946 13.0602 15.9918C12.3721 16.2831 11.634 16.4288 10.8459 16.4288C10.0578 16.4288 9.31967 16.2831 8.63155 15.9918C7.94344 15.6946 7.33766 15.2896 6.81422 14.7769C6.29078 14.2583 5.88203 13.6581 5.58796 12.9763C5.29389 12.2888 5.14686 11.5575 5.14686 10.7825Z" fill="white"></path></svg>