<svg xmlns="http://www.w3.org/2000/svg" width="50" height="50" viewBox="0 0 50 50" fill="none"><circle cx="25" cy="25" r="24" stroke="#515154" stroke-width="2"></circle><path d="M35.52 20.3432C35.389 19.8894 35.1323 19.4756 34.7756 19.1432C34.4188 18.8108 33.9744 18.5714 33.4869 18.449C31.6926 18 24.5 18 24.5 18C24.5 18 17.3074 18 15.5131 18.4467C15.0254 18.5687 14.5808 18.8079 14.2239 19.1404C13.8671 19.4729 13.6105 19.8868 13.48 20.3408C13 22.0127 13 25.5 13 25.5C13 25.5 13 28.9873 13.48 30.6568C13.7444 31.5788 14.5248 32.3049 15.5131 32.551C17.3074 33 24.5 33 24.5 33C24.5 33 31.6926 33 33.4869 32.551C34.4778 32.3049 35.2556 31.5788 35.52 30.6568C36 28.9873 36 25.5 36 25.5C36 25.5 36 22.0127 35.52 20.3432ZM22.2154 28.7006V22.2994L28.1708 25.4761L22.2154 28.7006Z" fill="#CE2020"></path></svg>