<svg xmlns="http://www.w3.org/2000/svg" width="50" height="50" viewBox="0 0 50 50" fill="none"><circle cx="25" cy="25" r="24" stroke="#515154" stroke-width="2"></circle><path d="M26.6125 22.2536V21.6686H28.2962V29.8872H27.3338C27.1432 29.8875 26.9603 29.8093 26.8251 29.6697C26.69 29.5301 26.6135 29.3404 26.6125 29.1423V29.1436C25.9097 29.6787 25.061 29.9665 24.19 29.9652C23.1017 29.9652 22.058 29.5158 21.2882 28.7157C20.5184 27.9156 20.0857 26.8304 20.085 25.6986C20.0857 24.5668 20.5184 23.4816 21.2882 22.6815C22.058 21.8814 23.1017 21.432 24.19 21.432C25.0606 21.431 25.9088 21.7188 26.6113 22.2536H26.6125V22.2536ZM19.6488 19.027V19.2935C19.6488 19.7901 19.585 20.1957 19.2737 20.6715L19.2363 20.7157C19.1326 20.8366 19.0317 20.9602 18.9338 21.0862L13.53 28.14H19.6488V29.1384C19.6488 29.2368 19.6301 29.3343 19.5938 29.4253C19.5576 29.5162 19.5044 29.5988 19.4374 29.6683C19.3704 29.7379 19.2909 29.793 19.2034 29.8306C19.1159 29.8681 19.0222 29.8874 18.9275 29.8872H11V29.4166C11 28.8407 11.1375 28.5833 11.3125 28.3155L17.0712 20.899H11.24V19.027H19.65H19.6488ZM30.3375 29.8872C30.1784 29.8872 30.0258 29.8215 29.9132 29.7044C29.8007 29.5874 29.7375 29.4287 29.7375 29.2632V19.027H31.5387V29.8872H30.3375V29.8872ZM36.8663 21.38C37.4089 21.3798 37.9463 21.4908 38.4478 21.7067C38.9492 21.9225 39.4049 22.2389 39.7887 22.6379C40.1726 23.0368 40.4771 23.5105 40.685 24.0319C40.8928 24.5533 40.9998 25.1121 41 25.6765C41.0002 26.2409 40.8934 26.7998 40.6859 27.3213C40.4784 27.8428 40.1741 28.3167 39.7905 28.7159C39.4069 29.1151 38.9514 29.4318 38.4501 29.648C37.9488 29.8641 37.4114 29.9754 36.8687 29.9756C35.7727 29.9759 34.7215 29.5235 33.9463 28.7177C33.171 27.912 32.7353 26.8189 32.735 25.6791C32.7347 24.5393 33.1697 23.446 33.9445 22.6397C34.7193 21.8335 35.7702 21.3803 36.8663 21.38V21.38ZM24.1913 28.2089C24.5129 28.2165 24.8328 28.1572 25.1322 28.0344C25.4315 27.9117 25.7042 27.7279 25.9343 27.494C26.1644 27.2601 26.3472 26.9807 26.4721 26.6723C26.5969 26.3638 26.6612 26.0326 26.6612 25.6979C26.6612 25.3633 26.5969 25.0321 26.4721 24.7236C26.3472 24.4152 26.1644 24.1358 25.9343 23.9019C25.7042 23.668 25.4315 23.4842 25.1322 23.3615C24.8328 23.2387 24.5129 23.1794 24.1913 23.187C23.5604 23.2019 22.9603 23.473 22.5192 23.9423C22.0781 24.4116 21.8312 25.0417 21.8312 25.6979C21.8312 26.3542 22.0781 26.9843 22.5192 27.4536C22.9603 27.9229 23.5604 28.194 24.1913 28.2089V28.2089ZM36.8663 28.205C37.5111 28.205 38.1295 27.9386 38.5854 27.4644C39.0414 26.9902 39.2975 26.3471 39.2975 25.6765C39.2975 25.0059 39.0414 24.3628 38.5854 23.8886C38.1295 23.4144 37.5111 23.148 36.8663 23.148C36.2214 23.148 35.603 23.4144 35.1471 23.8886C34.6911 24.3628 34.435 25.0059 34.435 25.6765C34.435 26.3471 34.6911 26.9902 35.1471 27.4644C35.603 27.9386 36.2214 28.205 36.8663 28.205V28.205Z" fill="#2288FF"></path></svg>