<svg xmlns="http://www.w3.org/2000/svg" width="24" height="21" viewBox="0 0 24 21" fill="none"><path d="M8.35614 15.7875H21.0197C21.1471 15.7875 21.2596 15.7414 21.3571 15.6491C21.4545 15.5491 21.5033 15.4223 21.5033 15.2685C21.5033 15.1225 21.4545 15.0033 21.3571 14.911C21.2596 14.8111 21.1471 14.7611 21.0197 14.7611H8.52484C8.17245 14.7611 7.89128 14.6573 7.68135 14.4498C7.47142 14.2345 7.33646 13.9308 7.27648 13.5387L5.40956 0.795717C5.37207 0.54201 5.2896 0.345964 5.16214 0.207578C5.03468 0.0691928 4.791 0 4.43112 0H0.483599C0.348641 0 0.232427 0.0538166 0.134958 0.16145C0.0449859 0.261395 0 0.38056 0 0.518946C0 0.657331 0.0449859 0.78034 0.134958 0.887974C0.232427 0.987919 0.348641 1.03789 0.483599 1.03789H4.40862L6.23055 13.7232C6.32052 14.3613 6.53421 14.8649 6.8716 15.2339C7.2165 15.603 7.71134 15.7875 8.35614 15.7875ZM6.52296 11.9588H20.8735C21.5558 11.9588 22.0656 11.7705 22.403 11.3937C22.7404 11.0093 22.9578 10.4789 23.0553 9.80231L23.955 3.78254C23.9625 3.72872 23.97 3.66337 23.9775 3.58649C23.9925 3.50961 24 3.45579 24 3.42504C24 3.20977 23.9325 3.04064 23.7976 2.91763C23.6701 2.78693 23.4864 2.72158 23.2465 2.72158H5.37582L5.42081 3.74794H22.8866L22.0094 9.69852C21.9494 10.0906 21.8257 10.3943 21.6382 10.6096C21.4508 10.8171 21.1809 10.9209 20.8285 10.9209H6.46673L6.52296 11.9588ZM9.6045 21C10.0544 21 10.4367 20.8386 10.7516 20.5156C11.0665 20.1928 11.224 19.8007 11.224 19.3394C11.224 18.8781 11.0665 18.486 10.7516 18.1631C10.4367 17.8402 10.0544 17.6787 9.6045 17.6787C9.15464 17.6787 8.77226 17.8402 8.45736 18.1631C8.14246 18.486 7.985 18.8781 7.985 19.3394C7.985 19.8007 8.14246 20.1928 8.45736 20.5156C8.77226 20.8386 9.15464 21 9.6045 21ZM19.2427 21C19.6926 21 20.075 20.8386 20.3899 20.5156C20.7048 20.1928 20.8622 19.8007 20.8622 19.3394C20.8622 18.8781 20.7048 18.486 20.3899 18.1631C20.075 17.8402 19.6926 17.6787 19.2427 17.6787C18.7929 17.6787 18.4067 17.8402 18.0843 18.1631C17.7694 18.486 17.612 18.8781 17.612 19.3394C17.612 19.8007 17.7694 20.1928 18.0843 20.5156C18.4067 20.8386 18.7929 21 19.2427 21Z" fill="white"></path></svg>